<?xml version="1.0" encoding="utf-8"?>
<!-- Generator: Adobe Illustrator 27.0.0, SVG Export Plug-In . SVG Version: 6.00 Build 0)  -->
<svg version="1.1" id="Layer_1" xmlns="http://www.w3.org/2000/svg" xmlns:xlink="http://www.w3.org/1999/xlink" x="0px" y="0px"
	 viewBox="0 0 486.5 80" style="enable-background:new 0 0 486.5 80;" xml:space="preserve">
<style type="text/css">
	.st0{fill:#4D4D4D;}
	.st1{fill:#FED83D;}
</style>
<g>
	<path class="st0" d="M58.9,36.8h-7.3V21.6H37.3v15.2H30V1.3h7.3v14.4h14.3V1.3h7.3V36.8z"/>
	<path class="st0" d="M80.6,34.1c-1.7,2.1-4.1,3.2-7.2,3.2c-2.8,0-5-0.8-6.5-2.4c-1.5-1.6-2.2-4-2.3-7.1V10.5h7v17.1
		c0,2.7,1.3,4.1,3.8,4.1c2.4,0,4-0.8,4.9-2.5V10.5h7.1v26.4h-6.6L80.6,34.1z"/>
	<path class="st0" d="M99.3,10.5l0.2,2.9c1.9-2.3,4.4-3.4,7.6-3.4c3.4,0,5.7,1.3,7,4c1.9-2.7,4.5-4,7.9-4c2.9,0,5,0.8,6.4,2.5
		s2.1,4.2,2.1,7.5v16.8h-7.1V20c0-1.5-0.3-2.6-0.9-3.3c-0.6-0.7-1.6-1-3.1-1c-2.1,0-3.6,1-4.4,3l0,18.1h-7V20c0-1.5-0.3-2.6-0.9-3.3
		c-0.6-0.7-1.6-1-3.1-1c-2,0-3.4,0.8-4.3,2.5v18.6h-7V10.5H99.3z"/>
	<path class="st0" d="M151.2,36.8c-0.3-0.6-0.6-1.4-0.7-2.4c-1.7,1.9-3.9,2.9-6.7,2.9c-2.6,0-4.7-0.7-6.4-2.2
		c-1.7-1.5-2.5-3.4-2.5-5.7c0-2.8,1-4.9,3.1-6.4c2.1-1.5,5.1-2.2,9-2.3h3.2v-1.5c0-1.2-0.3-2.2-0.9-2.9c-0.6-0.7-1.6-1.1-3-1.1
		c-1.2,0-2.1,0.3-2.8,0.9c-0.7,0.6-1,1.3-1,2.3h-7c0-1.5,0.5-2.9,1.4-4.2c0.9-1.3,2.3-2.3,4-3.1c1.7-0.7,3.7-1.1,5.8-1.1
		c3.2,0,5.8,0.8,7.7,2.4s2.9,3.9,2.9,6.9v11.4c0,2.5,0.4,4.4,1,5.7v0.4H151.2z M145.4,31.9c1,0,2-0.2,2.9-0.7s1.5-1.1,1.9-1.9v-4.5
		h-2.6c-3.5,0-5.4,1.2-5.6,3.7l0,0.4c0,0.9,0.3,1.6,0.9,2.2C143.5,31.6,144.3,31.9,145.4,31.9z"/>
	<path class="st0" d="M169.2,10.5l0.2,3c1.9-2.4,4.4-3.5,7.6-3.5c2.8,0,4.9,0.8,6.2,2.5c1.4,1.6,2.1,4.1,2.1,7.4v17h-7V20
		c0-1.5-0.3-2.6-1-3.3c-0.6-0.7-1.7-1-3.2-1c-2,0-3.5,0.8-4.5,2.5v18.6h-7V10.5H169.2z"/>
	<path class="st0" d="M190.6,3.6c0-1.1,0.4-1.9,1.1-2.6s1.7-1,2.9-1c1.2,0,2.2,0.3,2.9,1c0.7,0.7,1.1,1.6,1.1,2.6
		c0,1.1-0.4,1.9-1.1,2.6c-0.7,0.7-1.7,1-2.9,1c-1.2,0-2.1-0.3-2.9-1C190.9,5.6,190.6,4.7,190.6,3.6z M198.1,36.8H191V10.5h7.1V36.8z
		"/>
	<path class="st0" d="M212.3,4v6.5h4.5v5.2h-4.5v13.2c0,1,0.2,1.7,0.6,2.1c0.4,0.4,1.1,0.6,2.1,0.6c0.8,0,1.5-0.1,2.1-0.2v5.3
		c-1.4,0.4-2.8,0.6-4.3,0.6c-4.9,0-7.5-2.5-7.6-7.5V15.6h-3.8v-5.2h3.8V4H212.3z"/>
	<path class="st0" d="M236,36.8c-0.3-0.6-0.6-1.4-0.7-2.4c-1.7,1.9-3.9,2.9-6.7,2.9c-2.6,0-4.7-0.7-6.4-2.2
		c-1.7-1.5-2.5-3.4-2.5-5.7c0-2.8,1-4.9,3.1-6.4c2.1-1.5,5.1-2.2,9-2.3h3.2v-1.5c0-1.2-0.3-2.2-0.9-2.9c-0.6-0.7-1.6-1.1-3-1.1
		c-1.2,0-2.1,0.3-2.8,0.9c-0.7,0.6-1,1.3-1,2.3h-7c0-1.5,0.5-2.9,1.4-4.2c0.9-1.3,2.3-2.3,4-3.1c1.7-0.7,3.7-1.1,5.8-1.1
		c3.2,0,5.8,0.8,7.7,2.4s2.9,3.9,2.9,6.9v11.4c0,2.5,0.4,4.4,1,5.7v0.4H236z M230.2,31.9c1,0,2-0.2,2.9-0.7s1.5-1.1,1.9-1.9v-4.5
		h-2.6c-3.5,0-5.4,1.2-5.6,3.7l0,0.4c0,0.9,0.3,1.6,0.9,2.2C228.2,31.6,229.1,31.9,230.2,31.9z"/>
	<path class="st0" d="M262.3,17.1c-1-0.1-1.8-0.2-2.5-0.2c-2.7,0-4.4,0.9-5.2,2.7v17.3h-7V10.5h6.7l0.2,3.1c1.4-2.4,3.4-3.6,5.9-3.6
		c0.8,0,1.5,0.1,2.2,0.3L262.3,17.1z"/>
	<path class="st0" d="M265.6,3.6c0-1.1,0.4-1.9,1.1-2.6c0.7-0.7,1.7-1,2.9-1c1.2,0,2.2,0.3,2.9,1s1.1,1.6,1.1,2.6
		c0,1.1-0.4,1.9-1.1,2.6s-1.7,1-2.9,1s-2.1-0.3-2.9-1C266,5.6,265.6,4.7,265.6,3.6z M273.1,36.8H266V10.5h7.1V36.8z"/>
	<path class="st0" d="M294.2,36.8c-0.3-0.6-0.6-1.4-0.7-2.4c-1.7,1.9-3.9,2.9-6.7,2.9c-2.6,0-4.7-0.7-6.4-2.2
		c-1.7-1.5-2.5-3.4-2.5-5.7c0-2.8,1-4.9,3.1-6.4c2.1-1.5,5.1-2.2,9-2.3h3.2v-1.5c0-1.2-0.3-2.2-0.9-2.9c-0.6-0.7-1.6-1.1-3-1.1
		c-1.2,0-2.1,0.3-2.8,0.9c-0.7,0.6-1,1.3-1,2.3h-7c0-1.5,0.5-2.9,1.4-4.2c0.9-1.3,2.3-2.3,4-3.1c1.7-0.7,3.7-1.1,5.8-1.1
		c3.2,0,5.8,0.8,7.7,2.4c1.9,1.6,2.9,3.9,2.9,6.9v11.4c0,2.5,0.4,4.4,1,5.7v0.4H294.2z M288.4,31.9c1,0,2-0.2,2.9-0.7
		c0.9-0.5,1.5-1.1,1.9-1.9v-4.5h-2.6c-3.5,0-5.4,1.2-5.6,3.7l0,0.4c0,0.9,0.3,1.6,0.9,2.2C286.4,31.6,287.3,31.9,288.4,31.9z"/>
	<path class="st0" d="M312.1,10.5l0.2,3c1.9-2.4,4.4-3.5,7.6-3.5c2.8,0,4.9,0.8,6.2,2.5s2.1,4.1,2.1,7.4v17h-7V20
		c0-1.5-0.3-2.6-1-3.3c-0.7-0.7-1.7-1-3.2-1c-2,0-3.5,0.8-4.5,2.5v18.6h-7V10.5H312.1z"/>
	<path class="st0" d="M366.5,29.5h-12.8l-2.4,7.3h-7.8l13.2-35.5h6.8l13.3,35.5H369L366.5,29.5z M355.7,23.6h8.9l-4.5-13.3
		L355.7,23.6z"/>
	<path class="st0" d="M390.6,31.6c1.3,0,2.4-0.4,3.2-1.1c0.8-0.7,1.2-1.7,1.3-2.9h6.6c0,1.8-0.5,3.4-1.5,4.9c-1,1.5-2.3,2.6-3.9,3.5
		c-1.7,0.8-3.5,1.2-5.5,1.2c-3.8,0-6.7-1.2-8.9-3.6s-3.3-5.7-3.3-9.9v-0.5c0-4.1,1.1-7.3,3.2-9.7c2.2-2.4,5.1-3.6,8.9-3.6
		c3.3,0,5.9,0.9,7.9,2.8c2,1.9,3,4.4,3,7.5H395c0-1.4-0.5-2.5-1.3-3.3c-0.8-0.9-1.9-1.3-3.2-1.3c-1.6,0-2.9,0.6-3.7,1.8
		c-0.8,1.2-1.3,3.1-1.3,5.8V24c0,2.7,0.4,4.7,1.2,5.9S388.9,31.6,390.6,31.6z"/>
	<path class="st0" d="M414.1,4v6.5h4.5v5.2h-4.5v13.2c0,1,0.2,1.7,0.6,2.1c0.4,0.4,1.1,0.6,2.1,0.6c0.8,0,1.5-0.1,2.1-0.2v5.3
		c-1.4,0.4-2.8,0.6-4.3,0.6c-4.9,0-7.5-2.5-7.6-7.5V15.6h-3.8v-5.2h3.8V4H414.1z"/>
	<path class="st0" d="M422.4,3.6c0-1.1,0.4-1.9,1.1-2.6s1.7-1,2.9-1c1.2,0,2.2,0.3,2.9,1s1.1,1.6,1.1,2.6c0,1.1-0.4,1.9-1.1,2.6
		s-1.7,1-2.9,1c-1.2,0-2.1-0.3-2.9-1S422.4,4.7,422.4,3.6z M429.9,36.8h-7.1V10.5h7.1V36.8z"/>
	<path class="st0" d="M434.6,23.4c0-2.6,0.5-4.9,1.5-7c1-2,2.5-3.6,4.3-4.8c1.9-1.1,4.1-1.7,6.6-1.7c3.6,0,6.5,1.1,8.7,3.3
		s3.5,5.1,3.8,8.9l0,1.8c0,4-1.1,7.3-3.4,9.7s-5.3,3.7-9.1,3.7c-3.8,0-6.8-1.2-9.1-3.7c-2.3-2.4-3.4-5.8-3.4-9.9V23.4z M441.7,23.9
		c0,2.5,0.5,4.4,1.4,5.7c0.9,1.3,2.3,2,4,2c1.7,0,3-0.7,4-2c1-1.3,1.4-3.4,1.4-6.3c0-2.5-0.5-4.4-1.4-5.7c-1-1.4-2.3-2-4-2
		c-1.7,0-3.1,0.7-4,2C442.1,19,441.7,21.1,441.7,23.9z"/>
	<path class="st0" d="M470.4,10.5l0.2,3c1.9-2.4,4.4-3.5,7.6-3.5c2.8,0,4.9,0.8,6.2,2.5s2.1,4.1,2.1,7.4v17h-7V20
		c0-1.5-0.3-2.6-1-3.3c-0.7-0.7-1.7-1-3.2-1c-2,0-3.5,0.8-4.5,2.5v18.6h-7V10.5H470.4z"/>
</g>
<g>
	<path class="st0" d="M43.1,74h-9.2l-2.1,5.7H30l7.7-20.3h1.6L47,79.7h-1.8L43.1,74z M34.4,72.6h8.2l-4.1-11.1L34.4,72.6z"/>
	<path class="st0" d="M65.1,79.7h-1.7L51.7,62.3v17.4H50V59.4h1.7l11.7,17.4V59.4h1.7V79.7z"/>
	<path class="st0" d="M81.5,74h-9.2l-2.1,5.7h-1.8l7.7-20.3h1.6l7.7,20.3h-1.8L81.5,74z M72.8,72.6H81l-4.1-11.1L72.8,72.6z"/>
	<path class="st0" d="M90.2,78.3h10v1.5H88.4V59.4h1.7V78.3z"/>
	<path class="st0" d="M106.1,70.5l6.2-11.1h2L107,72.1v7.7h-1.7v-7.7l-7.3-12.7h2L106.1,70.5z"/>
	<path class="st0" d="M128.6,74.7c0-1.1-0.4-2-1.2-2.7c-0.8-0.7-2.2-1.3-4.3-1.9s-3.6-1.2-4.6-1.9c-1.4-1-2.1-2.3-2.1-3.9
		c0-1.6,0.6-2.8,1.9-3.8c1.3-1,2.9-1.5,4.9-1.5c1.3,0,2.6,0.3,3.6,0.8c1.1,0.5,1.9,1.2,2.5,2.2s0.9,2,0.9,3.1h-1.7
		c0-1.4-0.5-2.5-1.4-3.4c-0.9-0.8-2.2-1.3-3.8-1.3c-1.6,0-2.8,0.3-3.7,1c-0.9,0.7-1.4,1.6-1.4,2.7c0,1,0.4,1.9,1.2,2.5
		c0.8,0.7,2.2,1.2,4,1.7c1.8,0.5,3.2,1,4.1,1.6c0.9,0.5,1.6,1.2,2.1,1.9c0.5,0.7,0.7,1.6,0.7,2.6c0,1.6-0.6,2.9-1.9,3.9
		c-1.3,1-3,1.5-5.1,1.5c-1.4,0-2.7-0.3-3.9-0.8s-2.1-1.2-2.7-2.2c-0.6-0.9-0.9-2-0.9-3.2h1.7c0,1.4,0.5,2.6,1.6,3.4
		c1.1,0.8,2.5,1.2,4.3,1.2c1.6,0,2.9-0.3,3.8-1C128.1,76.8,128.6,75.9,128.6,74.7z"/>
	<path class="st0" d="M136.1,79.7h-1.7V59.4h1.7V79.7z"/>
	<path class="st0" d="M156.7,79.7H155l-11.7-17.4v17.4h-1.7V59.4h1.7L155,76.8V59.4h1.7V79.7z"/>
	<path class="st0" d="M176.6,77.3c-0.6,0.8-1.5,1.5-2.8,2s-2.7,0.7-4.3,0.7c-1.6,0-3-0.4-4.2-1.1c-1.2-0.8-2.2-1.8-2.9-3.2
		s-1-3-1-4.8v-2.6c0-2.8,0.7-5,2.1-6.7s3.3-2.5,5.7-2.5c2.1,0,3.8,0.5,5.1,1.6c1.3,1.1,2,2.5,2.3,4.4h-1.7c-0.3-1.5-0.9-2.6-1.8-3.4
		c-1-0.8-2.2-1.2-3.8-1.2c-1.9,0-3.4,0.7-4.5,2c-1.1,1.4-1.7,3.3-1.7,5.7v2.4c0,1.5,0.3,2.9,0.8,4.1c0.5,1.2,1.3,2.1,2.3,2.8
		c1,0.7,2.1,1,3.4,1c1.5,0,2.8-0.2,3.8-0.7c0.7-0.3,1.2-0.7,1.5-1.1v-5.2h-5.5v-1.5h7.2V77.3z"/>
	<path class="st0" d="M203.5,79.7h-1.7l-11.7-17.4v17.4h-1.7V59.4h1.7l11.7,17.4V59.4h1.7V79.7z"/>
	<path class="st0" d="M219.9,70h-9.5v8.3h10.9v1.5h-12.7V59.4h12.6v1.5h-10.9v7.7h9.5V70z"/>
	<path class="st0" d="M236.2,70h-9.5v8.3h10.9v1.5H225V59.4h12.6v1.5h-10.9v7.7h9.5V70z"/>
	<path class="st0" d="M241.2,79.7V59.4h5.7c1.7,0,3.2,0.4,4.5,1.1c1.3,0.8,2.4,1.8,3.1,3.3s1.1,3,1.1,4.8v1.9c0,1.8-0.4,3.4-1.1,4.8
		c-0.7,1.4-1.8,2.5-3.1,3.3c-1.3,0.8-2.9,1.1-4.6,1.1H241.2z M243,60.8v17.4h3.9c2.1,0,3.9-0.7,5.2-2.1c1.3-1.4,1.9-3.3,1.9-5.8
		v-1.8c0-2.3-0.6-4.2-1.9-5.6s-3-2.1-5-2.1H243z"/>
	<path class="st0" d="M271.5,74.7c0-1.1-0.4-2-1.2-2.7s-2.2-1.3-4.3-1.9c-2.1-0.6-3.6-1.2-4.6-1.9c-1.4-1-2.1-2.3-2.1-3.9
		c0-1.6,0.6-2.8,1.9-3.8c1.3-1,2.9-1.5,4.9-1.5c1.3,0,2.6,0.3,3.6,0.8c1.1,0.5,1.9,1.2,2.5,2.2c0.6,0.9,0.9,2,0.9,3.1h-1.7
		c0-1.4-0.5-2.5-1.4-3.4s-2.2-1.3-3.8-1.3c-1.6,0-2.8,0.3-3.7,1c-0.9,0.7-1.4,1.6-1.4,2.7c0,1,0.4,1.9,1.2,2.5
		c0.8,0.7,2.2,1.2,4,1.7c1.8,0.5,3.2,1,4.1,1.6c0.9,0.5,1.6,1.2,2.1,1.9c0.5,0.7,0.7,1.6,0.7,2.6c0,1.6-0.6,2.9-1.9,3.9
		c-1.3,1-3,1.5-5.1,1.5c-1.4,0-2.7-0.3-3.9-0.8s-2.1-1.2-2.7-2.2c-0.6-0.9-0.9-2-0.9-3.2h1.7c0,1.4,0.5,2.6,1.6,3.4
		c1.1,0.8,2.5,1.2,4.3,1.2c1.6,0,2.9-0.3,3.8-1S271.5,75.9,271.5,74.7z"/>
	<path class="st0" d="M294.8,74h-9.2l-2.1,5.7h-1.8l7.7-20.3h1.6l7.7,20.3H297L294.8,74z M286.1,72.6h8.2l-4.1-11.1L286.1,72.6z"/>
	<path class="st0" d="M316.9,79.7h-1.7l-11.7-17.4v17.4h-1.7V59.4h1.7l11.7,17.4V59.4h1.7V79.7z"/>
	<path class="st0" d="M322,79.7V59.4h5.7c1.7,0,3.2,0.4,4.5,1.1c1.3,0.8,2.4,1.8,3.1,3.3s1.1,3,1.1,4.8v1.9c0,1.8-0.4,3.4-1.1,4.8
		c-0.7,1.4-1.8,2.5-3.1,3.3c-1.3,0.8-2.9,1.1-4.6,1.1H322z M323.7,60.8v17.4h3.9c2.1,0,3.9-0.7,5.2-2.1s1.9-3.3,1.9-5.8v-1.8
		c0-2.3-0.6-4.2-1.9-5.6s-3-2.1-5-2.1H323.7z"/>
	<path class="st0" d="M355.3,71.2h-5.9v8.5h-1.7V59.4h6.6c2.2,0,3.9,0.5,5.1,1.6c1.2,1.1,1.8,2.5,1.8,4.4c0,1.3-0.4,2.5-1.1,3.4
		c-0.8,1-1.8,1.7-3.1,2.1l5.1,8.7v0.2h-1.8L355.3,71.2z M349.4,69.8h5.3c1.4,0,2.6-0.4,3.5-1.2c0.9-0.8,1.3-1.9,1.3-3.2
		c0-1.4-0.5-2.5-1.4-3.3c-0.9-0.8-2.2-1.2-3.8-1.2h-4.8V69.8z"/>
	<path class="st0" d="M377.1,70h-9.5v8.3h10.9v1.5h-12.7V59.4h12.6v1.5h-10.9v7.7h9.5V70z"/>
	<path class="st0" d="M393.6,74.7c0-1.1-0.4-2-1.2-2.7s-2.2-1.3-4.3-1.9s-3.6-1.2-4.6-1.9c-1.4-1-2.1-2.3-2.1-3.9
		c0-1.6,0.6-2.8,1.9-3.8s2.9-1.5,4.9-1.5c1.3,0,2.6,0.3,3.6,0.8c1.1,0.5,1.9,1.2,2.5,2.2c0.6,0.9,0.9,2,0.9,3.1h-1.7
		c0-1.4-0.5-2.5-1.4-3.4c-0.9-0.8-2.2-1.3-3.8-1.3c-1.6,0-2.8,0.3-3.7,1c-0.9,0.7-1.4,1.6-1.4,2.7c0,1,0.4,1.9,1.2,2.5
		c0.8,0.7,2.2,1.2,4,1.7c1.8,0.5,3.2,1,4.1,1.6s1.6,1.2,2.1,1.9c0.5,0.7,0.7,1.6,0.7,2.6c0,1.6-0.6,2.9-1.9,3.9
		c-1.3,1-3,1.5-5.1,1.5c-1.4,0-2.7-0.3-3.9-0.8c-1.2-0.5-2.1-1.2-2.7-2.2c-0.6-0.9-0.9-2-0.9-3.2h1.7c0,1.4,0.5,2.6,1.6,3.4
		c1.1,0.8,2.5,1.2,4.3,1.2c1.6,0,2.9-0.3,3.8-1C393.2,76.8,393.6,75.9,393.6,74.7z"/>
	<path class="st0" d="M400.8,71.4v8.3h-1.7V59.4h6.9c2.1,0,3.8,0.5,5,1.6c1.2,1.1,1.8,2.6,1.8,4.5c0,1.9-0.6,3.4-1.8,4.4
		c-1.2,1-2.9,1.6-5.1,1.6H400.8z M400.8,70h5.2c1.7,0,2.9-0.4,3.8-1.2c0.9-0.8,1.3-1.9,1.3-3.3c0-1.4-0.4-2.5-1.3-3.4
		c-0.9-0.8-2.1-1.3-3.7-1.3h-5.3V70z"/>
	<path class="st0" d="M431.7,70.7c0,1.9-0.3,3.5-1,4.9s-1.6,2.5-2.8,3.3c-1.2,0.8-2.6,1.1-4.2,1.1c-2.4,0-4.3-0.8-5.8-2.5
		c-1.5-1.7-2.2-4-2.2-6.9v-2.1c0-1.9,0.3-3.5,1-4.9c0.7-1.4,1.6-2.5,2.8-3.3c1.2-0.8,2.6-1.2,4.1-1.2c1.6,0,2.9,0.4,4.1,1.1
		s2.1,1.8,2.8,3.2c0.7,1.4,1,3,1,4.8V70.7z M430,68.5c0-2.4-0.6-4.4-1.7-5.8c-1.1-1.4-2.6-2.1-4.6-2.1c-1.9,0-3.4,0.7-4.5,2.1
		s-1.7,3.3-1.7,5.8v2.1c0,2.4,0.6,4.3,1.7,5.7s2.6,2.1,4.6,2.1c1.9,0,3.5-0.7,4.6-2.1c1.1-1.4,1.6-3.3,1.6-5.8V68.5z"/>
	<path class="st0" d="M451.2,79.7h-1.7l-11.7-17.4v17.4H436V59.4h1.7l11.7,17.4V59.4h1.7V79.7z"/>
	<path class="st0" d="M467.8,74.7c0-1.1-0.4-2-1.2-2.7s-2.2-1.3-4.3-1.9s-3.6-1.2-4.6-1.9c-1.4-1-2.1-2.3-2.1-3.9
		c0-1.6,0.6-2.8,1.9-3.8s2.9-1.5,4.9-1.5c1.3,0,2.6,0.3,3.6,0.8c1.1,0.5,1.9,1.2,2.5,2.2c0.6,0.9,0.9,2,0.9,3.1h-1.7
		c0-1.4-0.5-2.5-1.4-3.4c-0.9-0.8-2.2-1.3-3.8-1.3c-1.6,0-2.8,0.3-3.7,1c-0.9,0.7-1.4,1.6-1.4,2.7c0,1,0.4,1.9,1.2,2.5
		c0.8,0.7,2.2,1.2,4,1.7c1.8,0.5,3.2,1,4.1,1.6s1.6,1.2,2.1,1.9c0.5,0.7,0.7,1.6,0.7,2.6c0,1.6-0.6,2.9-1.9,3.9
		c-1.3,1-3,1.5-5.1,1.5c-1.4,0-2.7-0.3-3.9-0.8c-1.2-0.5-2.1-1.2-2.7-2.2c-0.6-0.9-0.9-2-0.9-3.2h1.7c0,1.4,0.5,2.6,1.6,3.4
		c1.1,0.8,2.5,1.2,4.3,1.2c1.6,0,2.9-0.3,3.8-1C467.4,76.8,467.8,75.9,467.8,74.7z"/>
	<path class="st0" d="M484.5,70H475v8.3h10.9v1.5h-12.7V59.4h12.6v1.5H475v7.7h9.5V70z"/>
</g>
<rect class="st1" width="10" height="80"/>
</svg>
